<svg width="248" height="25" viewBox="0 0 248 25" fill="none" xmlns="http://www.w3.org/2000/svg">
<path d="M27.1698 10.4906H7.09434V5.50942H32.9811C32.3019 3.39621 30.1132 1.43395 26.2641 1.43395H7.4717C3.16981 1.43395 0.679245 3.01886 0.679245 6.49055V10.1887C0.679245 13.2075 3.24528 14.9434 7.01887 14.9434H27.3208V20.2264H0C0.679245 23.0943 2.86792 24.6038 6.79245 24.6038H27.2453C31.5472 24.6038 33.6604 22.9434 33.6604 19.3962V15.6981C33.6604 12.4528 31.1698 10.717 27.1698 10.4906ZM68.1509 1.50942H43.3962V24.6792H50.4151V15.7736H68.6792C73.7358 15.7736 76.5283 14.0377 76.5283 9.96225V7.39621C76.4528 3.62263 73.283 1.50942 68.1509 1.50942ZM70.4151 8.90565C70.4151 10.566 70.1132 11.4717 67.3962 11.4717H50.4151L50.4906 5.43395H67.0943C70.1132 5.43395 70.4906 6.33961 70.4906 7.92452V8.90565H70.4151ZM99.8491 15.6226H84.9057L81.2075 19.5472H102.792L106.491 24.6792H114.792L96.9056 0.52829L92.6792 5.73584L99.8491 15.6226ZM128.226 5.50942H154.491C153.811 2.79244 151.17 1.43395 147.396 1.43395H127.774C124.377 1.43395 121.132 2.79244 121.132 6.49055V19.4717C121.132 23.1698 124.377 24.5283 127.774 24.5283H147.623C152.151 24.5283 153.736 23.2453 154.491 20.1509H128.226V5.50942ZM185.283 13.2075V9.28301H164.075V24.6792H195.396V20.3019H171.17V13.2075H185.283ZM164.83 1.50942H196.453V5.58489H164.83V1.50942ZM215.925 1.50942H204.906L217.887 11.0189C219.774 9.73584 221.962 8.37735 223.925 7.24527L215.925 1.50942ZM231.924 13.3585C230.038 14.6415 228.151 16.0755 226.34 17.434L236.151 24.6038H247.245L231.924 13.3585Z" fill="white"/>
</svg>
